<svg width="14" height="14" viewBox="0 0 14 14" fill="none" xmlns="http://www.w3.org/2000/svg">
<path d="M13.0307 10.5405L9.47267 6.98451L13.0287 3.42851C13.7127 2.74651 13.7127 1.63651 13.0287 0.954513C12.3447 0.266513 11.2387 0.268513 10.5547 0.952513L6.99667 4.50851L3.43867 0.948513C2.75467 0.264513 1.64667 0.268513 0.962672 0.948513C0.280672 1.63251 0.280672 2.74251 0.962672 3.42451L4.52267 6.98451L0.970672 10.5345C0.286672 11.2185 0.286672 12.3285 0.970672 13.0085C1.31267 13.3525 1.75867 13.5225 2.20667 13.5225C2.65667 13.5225 3.10267 13.3525 3.44467 13.0105L6.99667 9.45851L10.5567 13.0165C10.8987 13.3585 11.3447 13.5285 11.7927 13.5285C12.2407 13.5285 12.6887 13.3565 13.0307 13.0165C13.7147 12.3325 13.7147 11.2245 13.0307 10.5405Z" fill="white"/>
</svg>
